<?xml version="1.0" encoding="iso-8859-1"?>
<!-- Generator: Adobe Illustrator 19.0.0, SVG Export Plug-In . SVG Version: 6.00 Build 0)  -->
<svg version="1.1" id="Capa_1" xmlns="http://www.w3.org/2000/svg" xmlns:xlink="http://www.w3.org/1999/xlink" x="0px" y="0px"
	 viewBox="0 0 489.743 489.743" style="enable-background:new 0 0 489.743 489.743;" xml:space="preserve">
<g>
	<path d="M401.872,196.575l81-81c8.3-8.3,8.3-20.8,0-29.1l-81-81c-8.3-7.3-21.8-7.3-29.1,0l-79.9,81c-5.9,5.9-7.6,13.8-5.2,20.9
		l-114.8,29.9l-57-57c-8.3-7.3-21.8-7.3-29.1,0l-79.9,81c-8.3,8.3-8.3,20.8,0,29.1l79.9,81c9.1,9.1,21.8,7.3,29.1,0l25.5-25.5
		l102.5,102.5l-24.8,25.1c-8.3,8.3-8.3,20.8,0,29.1l79.9,81c9.1,9.1,21.8,7.3,29.1,0l81-81c8.3-8.3,8.3-20.8,0-29.1l-56-56
		l30.2-115.1C390.172,203.675,397.172,201.275,401.872,196.575z M387.272,50.175l51.9,51.9l-51.9,51.9l-51.9-51.9L387.272,50.175z
		 M101.272,228.775l-51.9-51.9l51.9-51.9l51.9,51.9L101.272,228.775z M170.472,216.775l26.4-26.4c5.2-5.2,7.1-12,5.8-18.4
		l115.8-30.4l30.5,30.9l-30.2,115.2c-7.1-1.7-14.8-0.1-19.7,4.8l-26.3,26.6L170.472,216.775z M313.572,440.875l-51.9-51.9l51.9-51.9
		l51.9,51.9L313.572,440.875z"/>
</g>
<g>
</g>
<g>
</g>
<g>
</g>
<g>
</g>
<g>
</g>
<g>
</g>
<g>
</g>
<g>
</g>
<g>
</g>
<g>
</g>
<g>
</g>
<g>
</g>
<g>
</g>
<g>
</g>
<g>
</g>
</svg>
