<?xml version="1.0" encoding="iso-8859-1"?>
<!-- Generator: Adobe Illustrator 19.0.0, SVG Export Plug-In . SVG Version: 6.00 Build 0)  -->
<svg version="1.1" id="Layer_1" xmlns="http://www.w3.org/2000/svg" xmlns:xlink="http://www.w3.org/1999/xlink" x="0px" y="0px"
	 viewBox="0 0 512.02 512.02" style="enable-background:new 0 0 512.02 512.02;" xml:space="preserve">
<g>
	<g>
		<path d="M509.081,351.872l-36.917-62.891l-58.273-14.578c-1.453-19.58-4.445-37.351-8.693-53.387l30.089-29.014h34.057
			c11.782,0,21.333-9.551,21.333-21.333c0-11.782-9.551-21.333-21.333-21.333h-51.277l-29.332,28.284
			c-6.448-12.459-13.851-23.281-21.947-32.51c-0.455-0.519-0.922-1.019-1.397-1.507c-2.665-18.093-11.384-35.019-24.774-51.412
			l36.561-33.864c8.644-8.006,9.161-21.504,1.155-30.148c-8.006-8.644-21.504-9.161-30.148-1.155l-38.735,35.878
			c-28.576-16.818-69.866-14.585-96.31-1.047l-25.751-32.443c-7.325-9.228-20.744-10.771-29.972-3.446
			c-9.228,7.325-10.771,20.744-3.447,29.972l27.178,34.241c-14.732,17.429-24.192,35.247-26.703,53.706
			c-0.384,0.402-0.764,0.81-1.134,1.233c-8.51,9.714-16.249,21.184-22.921,34.454l-37.512-30.237H42.683
			c-11.782,0-21.333,9.551-21.333,21.333c0,11.782,9.551,21.333,21.333,21.333h35.139l36.894,29.739
			c-4,15.278-6.856,32.127-8.338,50.598l-66.522,16.642L2.939,351.872c-5.964,10.161-2.563,23.233,7.598,29.197
			s23.233,2.563,29.197-7.598l27.851-47.445l38.494-9.63c1.239,9.919,3.879,21.989,8.539,35.703
			c3.837,11.293,8.728,22.605,14.744,33.861l-44.303,18.989L65.837,462.59c-3.727,11.177,2.312,23.259,13.489,26.987
			c11.177,3.727,23.259-2.312,26.987-13.489l13.162-39.469l33.522-14.368c7.469,9.641,15.854,19.177,25.225,28.553l10.159,10.159
			c39.581,39.608,103.763,39.608,143.348-0.005l10.155-10.134c9.129-9.135,17.326-18.419,24.647-27.803l25.781,12.89l13.378,40.168
			c3.723,11.178,15.803,17.222,26.981,13.5c11.178-3.723,17.222-15.803,13.5-26.981l-18.964-56.942l-37.071-18.536
			c6.298-11.632,11.391-23.327,15.357-35.002c4.352-12.811,6.94-24.188,8.273-33.765l30.67,7.673l27.851,47.445
			c5.964,10.161,19.037,13.563,29.197,7.598S515.045,362.033,509.081,351.872z M292.113,102.812
			c19.716,18.545,31.026,36.225,31.545,49.947c-0.135,1.008-0.291,2.037-0.479,3.097c-0.28,1.335-0.68,3.193-1.215,5.32
			c-1.938,7.696-4.866,15.375-8.899,22.383c-0.298,0.518-0.603,1.028-0.91,1.534c-0.132,0.217-0.266,0.433-0.401,0.649
			c-0.204,0.329-0.41,0.657-0.618,0.981c-0.622,0.964-1.26,1.907-1.916,2.823c-0.041,0.057-0.082,0.115-0.123,0.172
			c-5.03,6.973-11.073,12.526-18.401,16.494c-0.133,0.072-0.263,0.148-0.398,0.219c-0.88,0.467-1.786,0.903-2.703,1.324
			c-0.246,0.112-0.489,0.228-0.737,0.337c-0.848,0.374-1.716,0.721-2.596,1.056c-0.341,0.13-0.682,0.26-1.029,0.384
			c-0.827,0.296-1.671,0.572-2.526,0.834c-0.426,0.13-0.854,0.257-1.286,0.379c-0.816,0.23-1.645,0.445-2.487,0.645
			c-0.5,0.119-1.007,0.23-1.517,0.338c-0.814,0.173-1.637,0.335-2.475,0.48c-0.566,0.098-1.142,0.185-1.72,0.27
			c-0.605,0.09-1.219,0.169-1.837,0.245c-0.841,0.102-1.693,0.193-2.557,0.27c-0.518,0.046-1.043,0.084-1.57,0.121
			c-0.994,0.068-2.002,0.121-3.026,0.155c-0.484,0.016-0.972,0.027-1.462,0.036c-0.539,0.009-1.075,0.021-1.622,0.021
			c-0.557,0-1.103-0.012-1.651-0.021c-0.466-0.008-0.931-0.019-1.39-0.034c-1.055-0.035-2.092-0.089-3.114-0.16
			c-0.483-0.034-0.964-0.068-1.44-0.11c-0.93-0.081-1.844-0.18-2.746-0.291c-0.537-0.067-1.073-0.135-1.6-0.212
			c-0.671-0.098-1.335-0.203-1.99-0.319c-0.729-0.129-1.448-0.268-2.158-0.418c-0.543-0.114-1.081-0.233-1.613-0.36
			c-0.791-0.189-1.57-0.391-2.337-0.607c-0.472-0.133-0.939-0.272-1.402-0.414c-0.797-0.246-1.583-0.504-2.353-0.78
			c-0.393-0.14-0.779-0.288-1.165-0.436c-0.813-0.313-1.617-0.636-2.401-0.982c-0.301-0.133-0.595-0.273-0.891-0.411
			c-0.842-0.392-1.675-0.795-2.483-1.226c-0.197-0.105-0.388-0.217-0.582-0.324c-0.874-0.481-1.735-0.978-2.57-1.506
			c-0.084-0.053-0.166-0.109-0.25-0.162c-0.908-0.582-1.795-1.188-2.657-1.825c-0.035-0.025-0.07-0.049-0.105-0.075
			c-0.909-0.674-1.792-1.379-2.653-2.113c-0.027-0.023-0.054-0.044-0.081-0.067c-0.862-0.738-1.699-1.507-2.514-2.304
			c-0.023-0.023-0.047-0.045-0.07-0.068c-0.81-0.796-1.597-1.621-2.362-2.475c-0.029-0.032-0.058-0.065-0.087-0.097
			c-0.749-0.84-1.477-1.709-2.185-2.604c-0.05-0.063-0.099-0.126-0.148-0.189c-0.674-0.859-1.329-1.745-1.966-2.654
			c-0.095-0.135-0.188-0.272-0.282-0.408c-0.575-0.833-1.135-1.688-1.682-2.562c-0.288-0.463-0.573-0.93-0.853-1.404
			c-0.028-0.048-0.057-0.095-0.085-0.143c-0.327-0.556-0.648-1.119-0.964-1.69c-3.849-6.959-6.591-14.598-8.348-22.259
			c-0.623-2.718-1.034-4.995-1.285-6.707c-0.107-0.798-0.204-1.585-0.28-2.348l-0.016-0.161c-0.002-0.029-0.006-0.067-0.008-0.095
			c0.048-12.419,11.43-30.503,31.625-49.499C238.644,92.8,277.277,88.869,292.113,102.812z M311.726,420.643l-10.155,10.134
			c-22.942,22.958-60.093,22.958-83.014,0.021l-10.16-10.16c-27.029-27.046-44.104-54.965-53.379-82.265
			c-3.232-9.514-5.266-18.273-6.348-26.075c-0.646-4.66-0.832-7.946-0.804-9.642c0.003-43.576,7.6-76.884,19.359-101.405
			c0.461,0.898,0.952,1.784,1.438,2.673c0.11,0.201,0.21,0.401,0.321,0.603c0.014,0.025,0.028,0.049,0.042,0.074
			c0.37,0.667,0.755,1.329,1.139,1.991c0.319,0.55,0.642,1.097,0.969,1.64c0.208,0.345,0.401,0.696,0.614,1.039
			c0.174,0.282,0.357,0.555,0.533,0.835c0.133,0.212,0.269,0.421,0.404,0.632c0.424,0.662,0.853,1.32,1.289,1.97
			c0.228,0.341,0.46,0.679,0.692,1.017c0.35,0.51,0.703,1.016,1.061,1.518c0.312,0.438,0.627,0.872,0.944,1.303
			c0.286,0.389,0.575,0.775,0.866,1.159c0.389,0.514,0.782,1.024,1.179,1.529c0.227,0.287,0.455,0.573,0.684,0.857
			c0.463,0.575,0.93,1.146,1.403,1.709c0.169,0.201,0.34,0.4,0.51,0.599c0.536,0.627,1.077,1.248,1.627,1.86
			c0.109,0.121,0.219,0.24,0.329,0.361c0.613,0.675,1.232,1.342,1.862,1.998c0.04,0.042,0.081,0.083,0.122,0.125
			c7.039,7.303,15.146,13.402,24.323,18.109c0.132,0.068,0.262,0.139,0.395,0.206c0.702,0.356,1.415,0.699,2.13,1.038
			c0.279,0.133,0.556,0.269,0.837,0.399c0.614,0.284,1.236,0.558,1.859,0.83c0.398,0.174,0.795,0.35,1.197,0.519
			c0.537,0.226,1.079,0.443,1.623,0.66c0.506,0.203,1.013,0.404,1.526,0.599c0.465,0.177,0.935,0.347,1.405,0.517
			c0.609,0.221,1.22,0.438,1.837,0.648c0.394,0.134,0.791,0.264,1.189,0.394c0.715,0.233,1.434,0.459,2.159,0.678
			c0.317,0.095,0.635,0.189,0.954,0.281c0.829,0.241,1.666,0.472,2.509,0.693c0.23,0.06,0.459,0.121,0.69,0.18
			c0.957,0.245,1.923,0.476,2.896,0.696c0.129,0.029,0.258,0.059,0.388,0.088c1.106,0.245,2.223,0.474,3.35,0.687
			c0.005,0.001,0.01,0.002,0.016,0.003c7.107,1.34,14.64,2.046,22.612,2.046c7.931,0,15.436-0.697,22.529-2.021
			c0.069-0.013,0.137-0.027,0.206-0.04c1.057-0.2,2.106-0.412,3.145-0.64c0.201-0.044,0.401-0.09,0.601-0.135
			c0.896-0.202,1.787-0.413,2.669-0.636c0.309-0.078,0.617-0.158,0.924-0.239c0.758-0.199,1.511-0.405,2.259-0.619
			c0.405-0.116,0.807-0.234,1.209-0.354c0.633-0.19,1.261-0.385,1.886-0.586c0.493-0.158,0.983-0.318,1.471-0.483
			c0.513-0.174,1.023-0.353,1.531-0.534c0.577-0.205,1.152-0.413,1.721-0.628c0.395-0.149,0.787-0.304,1.179-0.458
			c0.664-0.26,1.326-0.524,1.981-0.797c0.268-0.112,0.532-0.228,0.798-0.342c0.762-0.326,1.521-0.658,2.27-1.002
			c0.122-0.056,0.243-0.115,0.365-0.172c12.367-5.743,22.954-13.891,31.768-24.023c0.028-0.032,0.056-0.064,0.084-0.096
			c0.618-0.712,1.226-1.434,1.827-2.166c0.1-0.121,0.199-0.242,0.298-0.364c0.531-0.653,1.055-1.313,1.572-1.981
			c0.171-0.221,0.342-0.443,0.512-0.665c0.443-0.581,0.88-1.167,1.313-1.759c0.247-0.337,0.491-0.677,0.735-1.018
			c0.35-0.49,0.697-0.983,1.04-1.481c0.332-0.481,0.659-0.967,0.984-1.455c0.246-0.37,0.493-0.739,0.735-1.112
			c0.145-0.223,0.295-0.44,0.439-0.664c0.147-0.229,0.278-0.464,0.423-0.694c0.613-0.975,1.215-1.961,1.804-2.961
			c0.339-0.575,0.674-1.151,1.003-1.73c0.632-1.114,1.243-2.225,1.832-3.335c0.074-0.14,0.156-0.277,0.229-0.418
			c11.979,24.546,19.746,57.978,19.746,101.753c0.034,2.21-0.151,5.501-0.797,10.164c-1.081,7.803-3.114,16.563-6.345,26.076
			C355.821,365.69,338.752,393.6,311.726,420.643z"/>
	</g>
</g>
<g>
</g>
<g>
</g>
<g>
</g>
<g>
</g>
<g>
</g>
<g>
</g>
<g>
</g>
<g>
</g>
<g>
</g>
<g>
</g>
<g>
</g>
<g>
</g>
<g>
</g>
<g>
</g>
<g>
</g>
</svg>
