<?xml version="1.0" encoding="iso-8859-1"?>
<!-- Generator: Adobe Illustrator 19.0.0, SVG Export Plug-In . SVG Version: 6.00 Build 0)  -->
<svg version="1.1" id="Layer_1" xmlns="http://www.w3.org/2000/svg" xmlns:xlink="http://www.w3.org/1999/xlink" x="0px" y="0px"
	 viewBox="0 0 395 395" style="enable-background:new 0 0 395 395;" xml:space="preserve">
<g>
	<polygon points="278.333,52.5 278.333,12.5 248.333,12.5 248.333,52.5 146.667,52.5 146.667,12.5 116.667,12.5 116.667,52.5 
		0,52.5 0,117.5 395,117.5 395,52.5 	"/>
	<path d="M0,382.5h395v-235H0V382.5z M262.5,195h50v50h-50V195z M262.5,285h50v50h-50V285z M172.5,195h50v50h-50V195z M172.5,285h50
		v50h-50V285z M82.5,195h50v50h-50V195z M82.5,285h50v50h-50V285z"/>
</g>
<g>
</g>
<g>
</g>
<g>
</g>
<g>
</g>
<g>
</g>
<g>
</g>
<g>
</g>
<g>
</g>
<g>
</g>
<g>
</g>
<g>
</g>
<g>
</g>
<g>
</g>
<g>
</g>
<g>
</g>
</svg>
