<?xml version="1.0" encoding="iso-8859-1"?>
<!-- Generator: Adobe Illustrator 17.1.0, SVG Export Plug-In . SVG Version: 6.00 Build 0)  -->
<!DOCTYPE svg PUBLIC "-//W3C//DTD SVG 1.1//EN" "http://www.w3.org/Graphics/SVG/1.1/DTD/svg11.dtd">
<svg version="1.1" id="Capa_1" xmlns="http://www.w3.org/2000/svg" xmlns:xlink="http://www.w3.org/1999/xlink" x="0px" y="0px"
	 viewBox="0 0 220.43 220.43" style="enable-background:new 0 0 220.43 220.43;" xml:space="preserve">
<path d="M180.385,67.03l10.784-14.567c2.465-3.329,1.764-8.026-1.565-10.491l-10.574-7.828c-1.598-1.183-3.603-1.682-5.569-1.39
	c-1.967,0.294-3.737,1.356-4.921,2.955l-9.538,12.885c-6.323-3.959-13.152-7.172-20.368-9.518V25.333
	C138.634,11.364,127.269,0,113.3,0h-8.706C90.625,0,79.261,11.364,79.261,25.333v14.149c0,0.152,0.014,0.301,0.023,0.45
	c-35.839,12.813-61.569,47.228-61.569,87.573c0,51.238,41.495,92.924,92.5,92.924s92.5-41.686,92.5-92.924
	C202.715,104.43,194.296,83.295,180.385,67.03z M110.215,145.206c-9.732,0-17.649-7.94-17.649-17.7
	c0-7.182,4.294-13.365,10.437-16.137c-0.183-0.648-0.287-1.33-0.287-2.037V67.719c0-4.143,3.358-7.5,7.5-7.5s7.5,3.357,7.5,7.5
	v41.613c0,0.707-0.105,1.388-0.287,2.037c6.143,2.772,10.437,8.956,10.437,16.137C127.864,137.266,119.947,145.206,110.215,145.206z
	"/>
<g>
</g>
<g>
</g>
<g>
</g>
<g>
</g>
<g>
</g>
<g>
</g>
<g>
</g>
<g>
</g>
<g>
</g>
<g>
</g>
<g>
</g>
<g>
</g>
<g>
</g>
<g>
</g>
<g>
</g>
</svg>
